<svg width="150" height="150" viewBox="0 0 150 150" fill="none" xmlns="http://www.w3.org/2000/svg">
<path fill-rule="evenodd" clip-rule="evenodd" d="M107.237 142.737L40.5 76L59.5 56L80 49.5L86.5 51.5L142.575 107.575C135.154 122.942 122.646 135.391 107.237 142.737Z" fill="#010101" fill-opacity="0.08"/>
<path d="M83.3716 50.6229L81.1123 50.0053C80.8198 49.9078 80.5353 49.9403 80.259 50.0947C79.9827 50.2491 79.7877 50.4929 79.6901 50.8017L66.0939 97.8642C65.9964 98.1812 66.0289 98.4819 66.1833 98.7582C66.3377 99.0345 66.5815 99.2296 66.8904 99.3271L69.1496 99.9447C69.4422 100.042 69.7266 100.01 70.0029 99.8553C70.2793 99.6928 70.4743 99.4571 70.5718 99.1483L84.1761 52.0776C84.2737 51.7607 84.2412 51.46 84.0867 51.1837C83.9242 50.9074 83.6885 50.7205 83.3716 50.6229Z" stroke="white" stroke-width="2" stroke-miterlimit="10"/>
<path d="M62.9976 59.8063C62.9976 59.4893 62.8757 59.213 62.6319 58.9692L60.8115 57.1488C60.5677 56.905 60.2914 56.7831 59.9744 56.7831C59.6575 56.7831 59.3812 56.905 59.1374 57.1488L42.1523 74.1339C41.9085 74.3777 41.7866 74.654 41.7866 74.9709C41.7866 75.2879 41.9085 75.5642 42.1523 75.808L59.1374 92.7931C59.3812 93.0369 59.6575 93.1588 59.9744 93.1588C60.2914 93.1588 60.5677 93.0369 60.8115 92.7931L62.6319 90.9727C62.8757 90.7289 62.9976 90.4526 62.9976 90.1356C62.9976 89.8187 62.8757 89.5424 62.6319 89.2986L48.3043 74.9709L62.6319 60.6433C62.8757 60.3995 62.9976 60.1232 62.9976 59.8063Z" stroke="white" stroke-width="2" stroke-miterlimit="10"/>
<path d="M108.126 74.1339L91.1408 57.1488C90.897 56.905 90.6207 56.7831 90.3038 56.7831C89.9868 56.7831 89.7105 56.905 89.4667 57.1488L87.6463 58.9692C87.4025 59.213 87.2806 59.4893 87.2806 59.8063C87.2806 60.1232 87.4025 60.3995 87.6463 60.6433L101.974 74.9709L87.6382 89.2986C87.3944 89.5424 87.2725 89.8187 87.2725 90.1356C87.2725 90.4526 87.3944 90.7289 87.6382 90.9727L89.4586 92.7931C89.7024 93.0369 89.9787 93.1588 90.2956 93.1588C90.6126 93.1588 90.8889 93.0369 91.1327 92.7931L108.118 75.808C108.362 75.5642 108.484 75.2879 108.484 74.9709C108.492 74.654 108.37 74.3777 108.126 74.1339Z" stroke="white" stroke-width="2" stroke-miterlimit="10"/>
</svg>
