<svg width="150" height="150" viewBox="0 0 150 150" fill="none" xmlns="http://www.w3.org/2000/svg">
<path fill-rule="evenodd" clip-rule="evenodd" d="M110.878 140.878L56 86L47.5 75L46 69L46.5 61.5L51.5 54.5L59 50.5L66.5 50L72.5 52L77.5 56L81 52.5L89 50L97 51L103 55L146.308 98.3077C140.332 116.6 127.515 131.798 110.878 140.878Z" fill="#010101" fill-opacity="0.08"/>
<path d="M90.4128 50.0012C85.2378 49.9713 80.3235 52.1894 76.9962 56.0431C73.6842 52.167 68.7545 49.9414 63.5796 50.0012C53.866 50.0012 46 57.6712 46 67.1261C46 83.3325 75.0335 99.1579 76.2142 99.7704C76.6895 100.077 77.3105 100.077 77.7858 99.7704C78.9665 99.1579 108 83.564 108 67.1261C107.992 57.6712 100.119 50.0012 90.4128 50.0012ZM76.9962 95.7897C72.6339 93.3028 50.3163 80.0464 50.3163 67.4547C50.3163 60.0162 56.5109 53.9818 64.1469 53.9818C68.8235 53.9221 73.2012 56.2223 75.7235 60.0611C76.2372 60.7481 77.2185 60.905 77.9315 60.4046C78.0695 60.3075 78.1845 60.1955 78.2842 60.0611C82.4625 53.8324 91.0338 52.0848 97.4277 56.1551C101.345 58.6495 103.699 62.899 103.691 67.4547C103.676 80.1883 81.3585 93.37 76.9962 95.7897Z" stroke="white" stroke-width="2" stroke-miterlimit="10"/>
</svg>
