<svg width="150" height="150" viewBox="0 0 150 150" fill="none" xmlns="http://www.w3.org/2000/svg">
<path fill-rule="evenodd" clip-rule="evenodd" d="M93.6872 147.653L42 95V92.5L47 82.5V48H100.5L147.346 94.8461C140.27 120.7 119.706 140.981 93.6872 147.653Z" fill="#010101" fill-opacity="0.08"/>
<path d="M105.337 90.6896C105.341 90.6992 105.345 90.7075 105.348 90.7144C105.352 90.7238 105.357 90.7327 105.36 90.7394C105.36 90.7398 105.36 90.7402 105.361 90.7406L105.337 90.6896ZM105.337 90.6896L100.253 80.9228L100.197 80.8142V80.6919V48.5491C100.197 47.8497 99.6092 47.2531 98.8539 47.2531H48.0285C47.279 47.2531 46.6855 47.844 46.6855 48.5491V80.6919V80.8142L46.6291 80.9228L41.5648 90.6529C41.5588 90.6684 41.5518 90.6843 41.5435 90.7005C41.5381 90.7112 41.5324 90.7212 41.5268 90.7306C41.5252 90.7338 41.5237 90.7368 41.5223 90.7395C41.5213 90.7423 41.5204 90.7449 41.5194 90.7473C41.519 90.7485 41.5185 90.7496 41.5181 90.7507V90.7562L41.5056 90.8049C41.5054 90.8062 41.5052 90.8077 41.505 90.8095L41.5048 90.8109C41.5039 90.818 41.5022 90.831 41.5 90.8455V90.8455V90.8456V90.8458V90.8459V90.846V90.8461V90.8462V90.8463V90.8464V90.8465V90.8466V90.8468V90.8469V90.847V90.8471V90.8472V90.8473V90.8474V90.8475V90.8477V90.8478V90.8479V90.848V90.8481V90.8482V90.8483V90.8484V90.8486V90.8487V90.8488V90.8489V90.849V90.8491V90.8492V90.8493V90.8495V90.8496V90.8497V90.8498V90.8499V90.85V90.8501V90.8503V90.8504V90.8505V90.8506V90.8507V90.8508V90.8509V90.8511V90.8512V90.8513V90.8514V90.8515V90.8516V90.8517V90.8519V90.852V90.8521V90.8522V90.8523V90.8524V90.8526V90.8527V90.8528V90.8529V90.853V90.8531V90.8532V90.8534V90.8535V90.8536V90.8537V90.8538V90.854V90.8541V90.8542V90.8543V90.8544V90.8545V90.8547V90.8548V90.8549V90.855V90.8551V90.8552V90.8554V90.8555V90.8556V90.8557V90.8558V90.856V90.8561V90.8562V90.8563V90.8564V90.8566V90.8567V90.8568V90.8569V90.857V90.8572V90.8573V90.8574V90.8575V90.8576V90.8578V90.8579V90.858V90.8581V90.8582V90.8584V90.8585V90.8586V90.8587V90.8588V90.859V90.8591V90.8592V90.8593V90.8595V90.8596V90.8597V90.8598V90.86V90.8601V90.8602V90.8603V90.8604V90.8606V90.8607V90.8608V90.8609V90.8611V90.8612V90.8613V90.8614V90.8616V90.8617V90.8618V90.8619V90.8621V90.8622V90.8623V90.8624V90.8626V90.8627V90.8628V90.8629V90.8631V90.8632V90.8633V90.8634V90.8636V90.8637V90.8638V90.8639V90.8641V90.8642V90.8643V90.8645V90.8646V90.8647V90.8648V90.865V90.8651V90.8652V90.8654V90.8655V90.8656V90.8657V90.8659V90.866V90.8661V90.8663V90.8664V90.8665V90.8666V90.8668V90.8669V90.867V90.8672V90.8673V90.8674V90.8676V90.8677V90.8678V90.868V90.8681V90.8682V90.8684V90.8685V90.8686V90.8688V90.8689V90.869V90.8691V90.8693V90.8694V90.8695V90.8697V90.8698V90.8699V90.8701V90.8702V90.8704V90.8705V90.8706V90.8708V90.8709V90.871V90.8712V90.8713V90.8714V90.8716V90.8717V90.8718V90.872V90.8721V90.8722V90.8724V90.8725V90.8727V90.8728V90.8729V90.8731V90.8732V90.8733V90.8735V90.8736V90.8738V90.8739V90.874V90.8742V90.8743V90.8745V90.8746V90.8747V90.8749V90.875V90.8752V90.8753V90.8754V90.8756V90.8757V90.8759V90.876V90.8761V90.8763V90.8764V90.8766V90.8767V90.8768V90.877V90.8771V90.8773V90.8774V90.8776V90.8777V90.8778V90.878V90.8781V90.8783V90.8784V90.8786V90.8787V90.8789V90.879V90.8791V90.8793V90.8794V90.8796V90.8797V90.8799V90.88V90.8802V90.8803V90.8805V90.8806V90.8807V90.8809V90.881V90.8812V90.8813V90.8815V90.8816V90.8818V90.8819V90.8821V90.8822V90.8824V90.8825V90.8827V90.8828V90.883V90.8831V90.8833V90.8834V90.8836V90.8837V90.8839V90.884V90.8842V90.8843V90.8845V90.8846V90.8848V90.8849V90.8851V90.8852V90.8854V90.8856V90.8857V90.8859V90.886V90.8862V90.8863V90.8865V90.8866V90.8868V93.2374C41.5 94.1201 42.2486 94.8679 43.1863 94.8679H103.696C104.634 94.8679 105.382 94.1201 105.382 93.2374V90.8868V90.8867V90.8866V90.8865V90.8864V90.8863V90.8862V90.8861V90.886V90.8859V90.8858V90.8856V90.8855V90.8854V90.8853V90.8852V90.8851V90.885V90.8849V90.8848V90.8847V90.8846V90.8845V90.8844V90.8843V90.8842V90.8841V90.884V90.8839V90.8838V90.8837V90.8836V90.8835V90.8834V90.8833V90.8832V90.8831V90.883V90.8829V90.8828V90.8827V90.8825V90.8824V90.8823V90.8822V90.8821V90.882V90.8819V90.8818V90.8817V90.8816V90.8815V90.8814V90.8813V90.8812V90.8811V90.881V90.8809V90.8808V90.8807V90.8806V90.8805V90.8804V90.8803V90.8802V90.8801V90.88V90.8799V90.8797V90.8796V90.8795V90.8794V90.8793V90.8792V90.8791V90.879V90.8789V90.8788V90.8787V90.8786V90.8785V90.8784V90.8783V90.8782V90.8781V90.878V90.8779V90.8778V90.8777V90.8776V90.8774V90.8773V90.8772V90.8771V90.877V90.8769V90.8768V90.8767V90.8766V90.8765V90.8764V90.8763V90.8762V90.8761V90.876V90.8759V90.8758V90.8757V90.8756V90.8755V90.8753V90.8752V90.8751V90.875V90.8749V90.8748V90.8747V90.8746V90.8745V90.8744V90.8743V90.8742V90.8741V90.874V90.8739V90.8738V90.8737V90.8735V90.8734V90.8733V90.8732V90.8731V90.873V90.8729V90.8728V90.8727V90.8726V90.8725V90.8724V90.8723V90.8722V90.8721V90.8719V90.8718V90.8717V90.8716V90.8715V90.8714V90.8713V90.8712V90.8711V90.871V90.8709V90.8708V90.8707V90.8705V90.8704V90.8703V90.8702V90.8701V90.87V90.8699V90.8698V90.8697V90.8696V90.8695V90.8694V90.8692V90.8691V90.869V90.8689V90.8688V90.8687V90.8686V90.8685V90.8684V90.8683V90.8682V90.868V90.8679V90.8678V90.8677V90.8676V90.8675V90.8674V90.8673V90.8672V90.8671V90.867V90.8668V90.8667V90.8666V90.8665V90.8664V90.8663V90.8662V90.8661V90.866V90.8658V90.8657V90.8656V90.8655V90.8654V90.8653V90.8652V90.8651V90.865V90.8648V90.8647V90.8646V90.8645V90.8644V90.8643V90.8642V90.8641V90.8639V90.8638V90.8637V90.8636V90.8635V90.8634V90.8633V90.8632V90.863V90.8629V90.8628V90.8627V90.8626V90.8625V90.8624V90.8623V90.8621V90.862V90.8619V90.8618V90.8617V90.8616V90.8615V90.8613V90.8612V90.8611V90.861V90.8609V90.8608V90.8607V90.8605V90.8604V90.8603V90.8602V90.8601V90.86V90.8598V90.8597V90.8596V90.8595V90.8594V90.8593V90.8592V90.859V90.8589V90.8588V90.8587V90.8586V90.8585V90.8583V90.8582V90.8581V90.858V90.8579V90.8578V90.8576V90.8575V90.8574V90.8573V90.8572V90.857V90.8569V90.8568V90.8567V90.8566V90.8565V90.8563V90.8562V90.8561V90.856V90.8559V90.8557V90.8556V90.8555V90.8554V90.8553V90.8551V90.855V90.8549V90.8548V90.8547V90.8545V90.8544V90.8543V90.8542V90.8541V90.8539V90.8538V90.8537V90.8536V90.8535V90.8533V90.8532V90.8531V90.853V90.8528V90.8527V90.8526V90.8525V90.8524V90.8522V90.8521V90.852V90.8519V90.8517V90.8516V90.8515V90.8514V90.8512V90.8511V90.851V90.8509V90.8508V90.8506V90.8505V90.8504V90.8503V90.8501V90.85V90.8499V90.8498V90.8496V90.8495V90.8494V90.8493V90.8491V90.849V90.8489V90.8487V90.8486V90.8485V90.8484V90.8482V90.8481V90.848V90.8479V90.8477V90.8476V90.8475V90.8474V90.8472V90.8471V90.847V90.8468V90.8467V90.8466V90.8465V90.8463V90.8462V90.8461V90.8459V90.8458V90.8457V90.8455V90.8454V90.8453V90.8452V90.845V90.8449V90.8448V90.8446V90.8445V90.8444V90.8442V90.8441V90.844V90.8438V90.8437V90.8436V90.8435V90.8433V90.8432V90.8431V90.8429V90.8428V90.8427V90.8425V90.8424V90.8423V90.8421V90.842V90.8419V90.8417V90.8416V90.8414V90.8413V90.8412V90.841V90.8409V90.8408V90.8406V90.8405V90.8404V90.8402V90.8401V90.84V90.8398V90.8397V90.8396V90.8394V90.8393V90.8391V90.839V90.8389V90.8387V90.8386V90.8385V90.8383V90.8382V90.838V90.8379V90.8378V90.8376V90.8375V90.8373V90.8372V90.8371V90.8369V90.8368V90.8366V90.8365V90.8364V90.8362V90.8361V90.8359V90.8358V90.8357V90.8355V90.8354V90.8352V90.8351V90.8349V90.8348V90.8347V90.8345V90.8344V90.8342V90.8341V90.834V90.8338V90.8337V90.8335V90.8334V90.8332V90.8331V90.8329V90.8328V90.8326V90.8325V90.8324V90.8322V90.8321V90.8319V90.8318V90.8316V90.8315V90.8313V90.8312V90.831V90.8309V90.8307V90.8306V90.8305V90.8303V90.8302V90.83V90.8299V90.8297V90.8296V90.8294V90.8293V90.8291V90.829V90.8288V90.8287V90.8285V90.8284V90.8282V90.8281V90.8279V90.8278V90.8276V90.8275V90.8273V90.8272V90.827V90.8268V90.8267V90.8265L105.38 90.8173L105.364 90.7562V90.7537C105.363 90.7501 105.362 90.7463 105.361 90.7423L105.337 90.6896ZM105.292 90.4818V90.4851C105.292 90.479 105.292 90.477 105.292 90.4818ZM48.0917 48.1107H47.5917V48.6107V79.9876V80.4876H48.0917H98.7997H99.2997V79.9876V48.6107V48.1107H98.7997H48.0917ZM47.7304 81.3452H47.4268L47.2867 81.6146L43.0678 89.7318L42.6881 90.4624H43.5115H64.3891H64.7673L64.8703 90.0984L65.9173 86.3951C65.9174 86.3946 65.9176 86.394 65.9177 86.3935C66.0719 85.8642 66.577 85.4794 67.1625 85.4794H79.7379C80.3263 85.4794 80.8287 85.858 80.9824 86.3923C80.9825 86.3928 80.9826 86.3932 80.9827 86.3936L82.0302 90.0984L82.1331 90.4624H82.5113H103.389H104.212L103.833 89.7318L99.6137 81.6146L99.4737 81.3452H99.1701H47.7304ZM80.5329 90.4624H81.1937L81.0141 89.8265L80.1287 86.6923L80.0259 86.3282H79.6476H67.2438H66.8655L66.7627 86.6923L65.8773 89.8265L65.6977 90.4624H66.3585H80.5329ZM104.485 93.2374V92.7374H104.476V91.8112V91.3112H103.976H42.8972H42.3972V91.8112V93.2374C42.3972 93.6953 42.7898 94.0103 43.1863 94.0103H103.696C104.112 94.0103 104.485 93.6855 104.485 93.2374Z" stroke="white"/>
<path d="M94.8699 76.6667H95.3699V76.1667V68.0056V66.773V52.4404V51.9404H94.8699H52.0215H51.5215V52.4404V66.773V68.0056V76.1667V76.6667H52.0215H94.8699ZM95.2854 51.0916C95.8436 51.0916 96.276 51.5313 96.276 52.0442V66.773V76.5629C96.276 77.0758 95.8436 77.5156 95.2854 77.5156H51.615C51.0568 77.5156 50.6244 77.0758 50.6244 76.5629V68.0056V66.773V52.0442C50.6244 51.5313 51.0568 51.0916 51.615 51.0916H95.2854Z" stroke="white"/>
</svg>
